<svg width="40" height="40" viewBox="0 0 40 40" fill="none" xmlns="http://www.w3.org/2000/svg">
<rect width="40" height="40" rx="20" fill="#0E79FF"/>
<path d="M30.0004 24.9201V27.9201C30.0016 28.1986 29.9445 28.4743 29.8329 28.7294C29.7214 28.9846 29.5577 29.2137 29.3525 29.402C29.1473 29.5902 28.905 29.7336 28.6412 29.8228C28.3773 29.912 28.0978 29.9452 27.8204 29.9201C24.7433 29.5857 21.7874 28.5342 19.1904 26.8501C16.7742 25.3148 14.7258 23.2663 13.1904 20.8501C11.5004 18.2413 10.4487 15.2711 10.1204 12.1801C10.0954 11.9036 10.1283 11.6249 10.2169 11.3617C10.3055 11.0986 10.448 10.8568 10.6352 10.6517C10.8224 10.4466 11.0502 10.2828 11.3042 10.1706C11.5582 10.0584 11.8328 10.0004 12.1104 10.0001H15.1104C15.5957 9.99532 16.0662 10.1672 16.4342 10.4836C16.8022 10.8001 17.0425 11.2395 17.1104 11.7201C17.237 12.6802 17.4719 13.6228 17.8104 14.5301C17.945 14.888 17.9741 15.277 17.8943 15.651C17.8146 16.0249 17.6293 16.3682 17.3604 16.6401L16.0904 17.9101C17.514 20.4136 19.5869 22.4865 22.0904 23.9101L23.3604 22.6401C23.6323 22.3712 23.9756 22.1859 24.3495 22.1062C24.7235 22.0264 25.1125 22.0556 25.4704 22.1901C26.3777 22.5286 27.3204 22.7635 28.2804 22.8901C28.7662 22.9586 29.2098 23.2033 29.527 23.5776C29.8441 23.9519 30.0126 24.4297 30.0004 24.9201Z" stroke="white" stroke-width="1.5" stroke-linecap="round" stroke-linejoin="round"/>
</svg>
