<svg width="48" height="48" viewBox="0 0 48 48" fill="none" xmlns="http://www.w3.org/2000/svg">
<rect width="48" height="48" rx="24" fill="white"/>
<g clip-path="url(#clip0_310_7819)">
<path d="M18 19.5L24 16.5L30 19.5M28.5 22.5L31.5 24V30C31.5 30.3978 31.342 30.7794 31.0607 31.0607C30.7794 31.342 30.3978 31.5 30 31.5H18C17.6022 31.5 17.2206 31.342 16.9393 31.0607C16.658 30.7794 16.5 30.3978 16.5 30V24L19.5 22.5M25.5 31.5V28.5C25.5 28.1022 25.342 27.7206 25.0607 27.4393C24.7794 27.158 24.3978 27 24 27C23.6022 27 23.2206 27.158 22.9393 27.4393C22.658 27.7206 22.5 28.1022 22.5 28.5V31.5M28.5 18.75V31.5M19.5 18.75V31.5M25.5 21.75C25.5 22.5784 24.8284 23.25 24 23.25C23.1716 23.25 22.5 22.5784 22.5 21.75C22.5 20.9216 23.1716 20.25 24 20.25C24.8284 20.25 25.5 20.9216 25.5 21.75Z" stroke="#0E79FF" stroke-width="1.5" stroke-linecap="round" stroke-linejoin="round"/>
</g>
<defs>
<clipPath id="clip0_310_7819">
<rect width="18" height="18" fill="white" transform="translate(15 15)"/>
</clipPath>
</defs>
</svg>
