<svg width="73" height="72" viewBox="0 0 73 72" fill="none" xmlns="http://www.w3.org/2000/svg">
<rect x="0.5" width="72" height="72" rx="36" fill="#DC2626"/>
<path d="M46.5 37V30C46.5 29.4696 46.2893 28.9609 45.9142 28.5858C45.5391 28.2107 45.0304 28 44.5 28H28.5C27.9696 28 27.4609 28.2107 27.0858 28.5858C26.7107 28.9609 26.5 29.4696 26.5 30V42C26.5 43.1 27.4 44 28.5 44H37.5M46.5 31L37.53 36.7C37.2213 36.8934 36.8643 36.996 36.5 36.996C36.1357 36.996 35.7787 36.8934 35.47 36.7L26.5 31M41.5 41L45.5 45M45.5 41L41.5 45" stroke="white" stroke-width="2" stroke-linecap="round" stroke-linejoin="round"/>
</svg>
