<svg width="49" height="48" viewBox="0 0 49 48" fill="none" xmlns="http://www.w3.org/2000/svg">
<rect x="0.666626" width="48" height="48" rx="24" fill="white"/>
<path d="M27 21H22.5C22.1022 21 21.7206 21.158 21.4393 21.4393C21.158 21.7206 21 22.1022 21 22.5C21 22.8978 21.158 23.2794 21.4393 23.5607C21.7206 23.842 22.1022 24 22.5 24H25.5C25.8978 24 26.2794 24.158 26.5607 24.4393C26.842 24.7206 27 25.1022 27 25.5C27 25.8978 26.842 26.2794 26.5607 26.5607C26.2794 26.842 25.8978 27 25.5 27H21M24 27.75V20.25M18 16.5V31.5L19.5 30.75L21 31.5L22.5 30.75L24 31.5L25.5 30.75L27 31.5L28.5 30.75L30 31.5V16.5L28.5 17.25L27 16.5L25.5 17.25L24 16.5L22.5 17.25L21 16.5L19.5 17.25L18 16.5Z" stroke="black" stroke-width="1.5" stroke-linecap="round" stroke-linejoin="round"/>
</svg>
