<svg width="106" height="37" viewBox="0 0 106 37" fill="none" xmlns="http://www.w3.org/2000/svg">
<path fill-rule="evenodd" clip-rule="evenodd" d="M5.95275 3.85053C4.53824 3.85053 3.39155 4.99722 3.39155 6.41174V31.7052L5.53407 30.968V30.6765C5.53407 29.1142 5.49663 27.661 5.46063 26.2641C5.4431 25.5837 5.42591 24.9167 5.41356 24.2569C5.37653 22.2785 5.38421 20.3921 5.58664 18.6354C6.00188 15.0319 7.25084 11.9043 10.5499 9.3315C11.5946 8.51678 13.085 7.97334 14.6228 7.73866C16.1863 7.50007 17.9712 7.55316 19.6625 8.09893C21.3728 8.65083 23.0067 9.71671 24.1437 11.4882C25.2763 13.2528 25.8178 15.5644 25.6301 18.4417C25.3045 23.4337 22.1924 26.3415 18.6199 28.2301C18.1152 28.497 17.5968 28.7462 17.0706 28.9807H25.1092C26.5237 28.9807 27.6704 27.8341 27.6704 26.4195V6.41174C27.6704 4.99722 26.5237 3.85053 25.1092 3.85053H5.95275ZM8.90093 28.3061C9.28568 28.1794 9.67399 28.0532 10.0615 27.9273C10.7085 27.7171 11.3532 27.5077 11.975 27.2976C13.7819 26.6873 15.5115 26.0371 17.0348 25.2318C20.0484 23.6386 22.0267 21.5799 22.2458 18.2209C22.3984 15.8809 21.9406 14.3346 21.2894 13.3201C20.6426 12.3122 19.7083 11.6775 18.6209 11.3266C17.5145 10.9696 16.2723 10.9178 15.1345 11.0914C13.9709 11.2689 13.0857 11.6549 12.6355 12.0059C10.2279 13.8836 9.29541 16.0772 8.95589 19.0236C8.78095 20.5418 8.76791 22.2377 8.80452 24.1934C8.81601 24.8074 8.83254 25.4505 8.84971 26.1185C8.86779 26.8218 8.88657 27.5526 8.90093 28.3061ZM11.8763 32.3723H25.1092C28.3968 32.3723 31.0619 29.7072 31.0619 26.4195V6.41174C31.0619 3.12412 28.3968 0.458984 25.1092 0.458984H5.95275C2.66514 0.458984 0 3.12412 0 6.41174V36.459L11.8763 32.3723Z" fill="#0E79FF"/>
<path d="M96.8469 33.4856C96.0707 33.4856 95.5137 33.0108 95.5137 32.0976V18.2555C95.5137 17.3971 96.0068 16.8857 96.8286 16.8857C97.6505 16.8857 98.1344 17.3971 98.1344 18.2555V25.249H98.1892C98.7097 24.0162 99.7781 23.3222 101.267 23.3222C103.44 23.3222 104.682 24.7285 104.682 26.9931V32.0976C104.682 33.0108 104.134 33.4856 103.349 33.4856C102.572 33.4856 102.015 33.0108 102.015 32.0976V27.5593C102.015 26.2991 101.394 25.532 100.18 25.532C98.9197 25.532 98.1801 26.4178 98.1801 27.7054V32.0976C98.1801 33.0108 97.6322 33.4856 96.8469 33.4856Z" fill="#0E79FF"/>
<path d="M90.6569 33.506C87.7074 33.506 85.8354 31.5701 85.8354 28.4014C85.8354 25.2693 87.6983 23.2969 90.6387 23.2969C92.6019 23.2969 94.2365 24.2466 94.7661 25.6346C94.8574 25.8628 94.9122 26.1003 94.9122 26.292C94.9122 26.9495 94.4009 27.333 93.7708 27.333C93.2411 27.333 92.9215 27.123 92.6476 26.639C92.1636 25.7807 91.5701 25.388 90.7208 25.388C89.3694 25.388 88.5384 26.5021 88.5384 28.3923C88.5384 30.319 89.3694 31.4148 90.7026 31.4148C91.634 31.4148 92.2093 30.9583 92.6202 30.2643C92.9763 29.7072 93.2685 29.4789 93.8347 29.4789C94.4556 29.4789 94.9579 29.8899 94.9579 30.5473C94.9579 30.7574 94.9031 30.9765 94.7844 31.2413C94.2 32.5745 92.5289 33.506 90.6569 33.506Z" fill="#0E79FF"/>
<path d="M79.7758 33.4512C77.913 33.4512 76.4976 32.2458 76.4976 30.4834C76.4976 28.7028 77.8673 27.6709 80.3146 27.5248L82.7801 27.3787V26.7303C82.7801 25.8172 82.1409 25.2876 81.1364 25.2876C80.3237 25.2876 79.8306 25.5524 79.237 26.3194C78.9448 26.6482 78.6069 26.8125 78.1778 26.8125C77.5294 26.8125 77.0637 26.3925 77.0637 25.7898C77.0637 25.5798 77.1094 25.388 77.2007 25.1871C77.6573 24.0183 79.2279 23.2969 81.2551 23.2969C83.7663 23.2969 85.4008 24.5936 85.4008 26.566V32.1454C85.4008 33.0311 84.8621 33.4877 84.1041 33.4877C83.3828 33.4877 82.8805 33.0859 82.8257 32.3006V31.7984H82.7709C82.223 32.8394 80.9994 33.4512 79.7758 33.4512ZM80.6524 31.5244C81.8213 31.5244 82.7801 30.7665 82.7801 29.7072V28.995L80.7163 29.1228C79.721 29.1959 79.1548 29.6433 79.1548 30.3373C79.1548 31.0678 79.7575 31.5244 80.6524 31.5244Z" fill="#0E79FF"/>
<path d="M71.5871 33.506C68.6285 33.506 66.7383 31.6066 66.7383 28.3923C66.7383 25.2236 68.6559 23.2969 71.5871 23.2969C74.5184 23.2969 76.436 25.2145 76.436 28.3923C76.436 31.6157 74.5458 33.506 71.5871 33.506ZM71.5871 31.4696C72.893 31.4696 73.7239 30.3647 73.7239 28.4014C73.7239 26.4564 72.8838 25.3332 71.5871 25.3332C70.2905 25.3332 69.4412 26.4564 69.4412 28.4014C69.4412 30.3647 70.2722 31.4696 71.5871 31.4696Z" fill="#0E79FF"/>
<path d="M60.7972 33.513C56.8889 33.513 54.5146 30.9561 54.5146 26.7008C54.5146 22.4546 56.9345 19.8887 60.7241 19.8887C63.1896 19.8887 65.0981 20.9845 66.0022 22.8838C66.1848 23.2308 66.2761 23.587 66.2761 23.9157C66.2761 24.6371 65.7921 25.1028 65.0616 25.1028C64.4407 25.1028 64.048 24.8288 63.7467 24.1896C63.144 22.8473 62.0664 22.1716 60.7515 22.1716C58.6695 22.1716 57.3272 23.9157 57.3272 26.6917C57.3272 29.5042 58.6512 31.2392 60.7606 31.2392C62.1486 31.2392 63.1896 30.6091 63.7832 29.285C64.0663 28.6641 64.4133 28.4175 64.9977 28.4175C65.7739 28.4175 66.2852 28.9107 66.2852 29.6412C66.2852 29.9517 66.2122 30.2439 66.0752 30.5635C65.2534 32.3898 63.2901 33.513 60.7972 33.513Z" fill="#0E79FF"/>
<path d="M100.089 20.4453C98.0892 20.4362 96.6008 19.6783 95.9707 18.6464C95.8246 18.3999 95.7698 18.1533 95.7698 17.9068C95.7698 17.3497 96.1899 16.9297 96.8565 16.9297C97.2035 16.9297 97.4774 17.0393 97.7788 17.3132C98.5001 17.9981 99.1941 18.3725 100.08 18.3816C101.541 18.3907 102.399 17.5872 102.399 16.3635V14.802H102.345C101.888 15.8522 100.747 16.5553 99.3311 16.5553C96.893 16.5553 95.3589 14.6925 95.3589 11.7064C95.3589 8.63823 96.8565 6.82105 99.3768 6.82105C100.783 6.82105 101.851 7.5607 102.363 8.66562H102.418V8.12686C102.418 7.22284 102.993 6.77539 103.76 6.77539C104.527 6.77539 105.084 7.22284 105.084 8.12686V16.3818C105.084 18.9295 103.239 20.4636 100.089 20.4453ZM100.235 14.5737C101.568 14.5737 102.427 13.5145 102.427 11.743C102.427 9.98057 101.568 8.84825 100.235 8.84825C98.9202 8.84825 98.0892 9.9623 98.0892 11.7338C98.0892 13.5236 98.9111 14.5737 100.235 14.5737Z" fill="#0E79FF"/>
<path d="M87.2106 16.9571C86.4345 16.9571 85.8774 16.4822 85.8774 15.5691V8.11773C85.8774 7.28676 86.3614 6.77539 87.165 6.77539C87.9686 6.77539 88.4982 7.28676 88.4982 8.12686V8.67475H88.553C89.0735 7.46026 90.0597 6.79365 91.5664 6.79365C93.7397 6.79365 94.9633 8.16339 94.9633 10.4554V15.5691C94.9633 16.4822 94.4063 16.9571 93.6301 16.9571C92.8448 16.9571 92.2969 16.4822 92.2969 15.5691V11.0124C92.2969 9.73402 91.6942 9.00349 90.498 9.00349C89.3018 9.00349 88.5439 9.88012 88.5439 11.1494V15.5691C88.5439 16.4822 87.996 16.9571 87.2106 16.9571Z" fill="#0E79FF"/>
<path d="M79.4633 16.9199C77.6005 16.9199 76.1851 15.7146 76.1851 13.9522C76.1851 12.1715 77.5548 11.1396 80.0021 10.9935L82.4676 10.8474V10.1991C82.4676 9.28594 81.8284 8.7563 80.8239 8.7563C80.0112 8.7563 79.5181 9.02112 78.9245 9.78817C78.6323 10.1169 78.2944 10.2813 77.8653 10.2813C77.2169 10.2813 76.7512 9.86122 76.7512 9.25854C76.7512 9.04852 76.7969 8.85675 76.8882 8.65586C77.3448 7.48702 78.9154 6.76562 80.9426 6.76562C83.4538 6.76562 85.0883 8.06231 85.0883 10.0347V15.6141C85.0883 16.4999 84.5496 16.9564 83.7916 16.9564C83.0703 16.9564 82.568 16.5547 82.5132 15.7693V15.2671H82.4584C81.9105 16.3081 80.6869 16.9199 79.4633 16.9199ZM80.3399 14.9932C81.5088 14.9932 82.4676 14.2352 82.4676 13.176V12.4637L80.4038 12.5916C79.4085 12.6646 78.8423 13.1121 78.8423 13.8061C78.8423 14.5366 79.445 14.9932 80.3399 14.9932Z" fill="#0E79FF"/>
<path d="M68.9541 16.7638C68.0866 16.7638 67.5752 16.2341 67.5752 15.321V4.84708C67.5752 3.93393 68.0866 3.4043 68.9541 3.4043C69.8216 3.4043 70.3329 3.93393 70.3329 4.84708V14.4809H75.0083C75.7571 14.4809 76.2593 14.9101 76.2593 15.6223C76.2593 16.3346 75.7662 16.7638 75.0083 16.7638H68.9541Z" fill="#0E79FF"/>
<path d="M61.3715 12.5737C60.6501 12.5737 60.1113 12.1445 60.1113 11.4048C60.1113 10.6652 60.6501 10.2451 61.3715 10.2451H65.1793C65.9007 10.2451 66.4395 10.6652 66.4395 11.4048C66.4395 12.1445 65.9007 12.5737 65.1793 12.5737H61.3715Z" fill="#0E79FF"/>
<path d="M52.6005 20.3905C51.4316 20.3905 50.8015 19.9431 50.8015 19.1395C50.8015 18.6008 51.1759 18.2629 51.7786 18.2629C51.9613 18.2629 52.0617 18.272 52.2443 18.272C52.71 18.272 53.2123 18.0711 53.5319 17.3863L53.6689 17.0393L50.5459 8.8026C50.4454 8.52865 50.3906 8.23644 50.3906 8.01728C50.3906 7.29589 50.9842 6.77539 51.7695 6.77539C52.4726 6.77539 52.8379 7.07673 53.057 7.85291L55.1847 14.6285H55.2304L57.358 7.83465C57.5772 7.095 57.9607 6.77539 58.6456 6.77539C59.4126 6.77539 59.9422 7.27763 59.9422 7.98076C59.9422 8.19991 59.8874 8.51039 59.7961 8.76607L56.7918 16.9297C55.8787 19.4591 54.7464 20.3905 52.6005 20.3905Z" fill="#0E79FF"/>
<path d="M37.1883 16.9373C36.4121 16.9373 35.9556 16.4624 35.9556 15.6497V5.18495C35.9556 4.0709 36.613 3.4043 37.7362 3.4043C38.695 3.4043 39.2247 3.80609 39.6265 4.82882L42.8956 12.9285H42.9686L46.2286 4.82882C46.6304 3.81522 47.1691 3.4043 48.1371 3.4043C49.2511 3.4043 49.9086 4.06177 49.9086 5.18495V15.6497C49.9086 16.4624 49.452 16.9373 48.6758 16.9373C47.8996 16.9373 47.4522 16.4624 47.4522 15.6497V7.86963H47.3791L44.1192 15.8415C43.8818 16.4259 43.5165 16.6816 42.9412 16.6816C42.3568 16.6816 41.9733 16.4168 41.745 15.8506L38.485 7.86963H38.412V15.6497C38.412 16.4624 37.9645 16.9373 37.1883 16.9373Z" fill="#0E79FF"/>
</svg>
