<svg width="49" height="48" viewBox="0 0 49 48" fill="none" xmlns="http://www.w3.org/2000/svg">
<rect x="0.333374" width="48" height="48" rx="24" fill="black"/>
<path d="M27 30.75V29.25C27 28.4544 26.6839 27.6913 26.1213 27.1287C25.5587 26.5661 24.7956 26.25 24 26.25H19.5C18.7044 26.25 17.9413 26.5661 17.3787 27.1287C16.8161 27.6913 16.5 28.4544 16.5 29.25V30.75M31.5 30.75V29.25C31.4995 28.5853 31.2783 27.9396 30.871 27.4142C30.4638 26.8889 29.8936 26.5137 29.25 26.3475M27 17.3475C27.6453 17.5127 28.2173 17.888 28.6257 18.4142C29.0342 18.9404 29.2559 19.5876 29.2559 20.2538C29.2559 20.9199 29.0342 21.5671 28.6257 22.0933C28.2173 22.6195 27.6453 22.9948 27 23.16M24.75 20.25C24.75 21.9069 23.4069 23.25 21.75 23.25C20.0931 23.25 18.75 21.9069 18.75 20.25C18.75 18.5931 20.0931 17.25 21.75 17.25C23.4069 17.25 24.75 18.5931 24.75 20.25Z" stroke="white" stroke-width="1.5" stroke-linecap="round" stroke-linejoin="round"/>
</svg>
